<?xml version="1.0" encoding="UTF-8" standalone="no"?>
<svg viewBox="0 0 1875 594"
     preserveAspectRatio="xMidYMid meet"
     version="1.1"
     baseProfile="full"
     xmlns="http://www.w3.org/2000/svg"
     xmlns:xlink="http://www.w3.org/1999/xlink"
     xmlns:ev="http://www.w3.org/2001/xml-events"
     xml:space="preserve">
<title>top_imp</title>
<desc>Nlview schematic (SVG)</desc>
<clipPath id="clippingbbox">
<rect x="0" y="0" width="1875" height="594" />
</clipPath>
<g stroke="#102235"
   stroke-width="1"
   stroke-linecap="butt"
   stroke-linejoin="miter"
   stroke-miterlimit="4"
   stroke-dasharray="none"
   stroke-dashoffset="0"
   fill="none"
   font-family="Helvetica"
   font-style="normal"
   font-size="12"
   writing-mode="lr-tb"
   cursor="crosshair"
   clip-path="url(#clippingbbox)">
<path d="M0 0h1874v595h-1874z" stroke="none" fill="white" />
<path d="M108 147l-7 7h-14v-14h14z" stroke="none" fill="#ddd4d0" />
<g stroke="#2a5e6f" stroke-width="3">
<path d="M108 147l-7 7h-14v-14h14z" />
<text x="83" y="147" fill="black" stroke-width="0" text-anchor="end" dy="4.4">pci_clk</text>
<path d="M108 217l-7 7h-14v-14h14z" stroke="none" fill="#ddd4d0" />
</g>
<g>
<path d="M108 217l-7 7h-14v-14h14z" />
<text x="83" y="217" fill="black" stroke-width="0" text-anchor="end" dy="4.4">pci_rst_n</text>
<path d="M165 109h226l3 1l2 1l1 2l1 3v62l-1 3l-1 2l-2 1l-3 1h-226l-3 -1l-2 -1l-1 -2l-1 -3v-62l1 -3l1 -2l2 -1z" stroke="none" fill="#edf6fe" />
<text x="278" y="107" fill="black" stroke-width="0" text-anchor="middle" dy="-1.6">util_ds_buf</text>
<text x="278" y="187" fill="#41619f" stroke-width="0" text-anchor="middle" dy="9.6">Utility Buffer</text>
<path d="M148 138h10v18h-10z" stroke="none" fill="#edf6fe" />
</g>
<g stroke="black" stroke-width="3">
<path d="M167 142v10" />
<path d="M162 147h10" />
</g>
<g stroke="black">
<path d="M160 140h14v14h-14z" />
<text x="175" y="147" fill="black" stroke-width="0" font-size="10" dy="3.66667">CLK_IN_D</text>
</g>
<g stroke="black" stroke-width="5">
<path d="M408 137h-10" />
<text x="396" y="137" fill="black" stroke-width="0" font-size="10" text-anchor="end" dy="3.66667">IBUF_OUT[0:0]</text>
<path d="M408 157h-10" />
<text x="396" y="157" fill="black" stroke-width="0" font-size="10" text-anchor="end" dy="3.66667">IBUF_DS_ODIV2[0:0]</text>
</g>
<g stroke="#41619f">
<path d="M165 109h226" />
<path d="M391,109 A6.83537,6.83537 1.61957 0,1 398,116" />
<path d="M398 116v62" />
<path d="M398,178 A6.83537,6.83537 1.61957 0,1 391,185" />
<path d="M391 185h-226" />
<path d="M165,185 A6.83537,6.83537 1.61957 0,1 158,178" />
<path d="M158 178v-62" />
<path d="M158,116 A6.83537,6.83537 1.61957 0,1 165,109" />
<path d="M475 69h226l3 1l2 1l1 2l1 3v242l-1 3l-1 2l-2 1l-3 1h-226l-3 -1l-2 -1l-1 -2l-1 -3v-242l1 -3l1 -2l2 -1z" stroke="none" fill="#edf6fe" />
<text x="588" y="67" fill="black" stroke-width="0" text-anchor="middle" dy="-1.6">xdma_0</text>
<text x="588" y="327" fill="#41619f" stroke-width="0" text-anchor="middle" dy="9.6">DMA/Bridge Subsystem for PCI Express</text>
<path d="M708 88h10v18h-10z" stroke="none" fill="#edf6fe" />
</g>
<g stroke="black" stroke-width="3">
<path d="M698 92v10" />
<path d="M693 97h10" />
</g>
<g stroke="black">
<path d="M691 90h14v14h-14z" />
<text x="691" y="97" fill="black" stroke-width="0" font-size="10" text-anchor="end" dy="3.66667">M_AXI_B</text>
<path d="M458 148h10v18h-10z" stroke="none" fill="#edf6fe" />
</g>
<g stroke="black" stroke-width="3">
<path d="M477 152v10" />
<path d="M472 157h10" />
</g>
<g stroke="black">
<path d="M470 150h14v14h-14z" />
<text x="485" y="157" fill="black" stroke-width="0" font-size="10" dy="3.66667">S_AXI_LITE</text>
<path d="M708 108h10v18h-10z" stroke="none" fill="#edf6fe" />
</g>
<g stroke="black" stroke-width="3">
<path d="M698 112v10" />
<path d="M693 117h10" />
</g>
<g stroke="black">
<path d="M691 110h14v14h-14z" />
<text x="691" y="117" fill="black" stroke-width="0" font-size="10" text-anchor="end" dy="3.66667">pcie_mgt</text>
</g>
<g stroke="black" stroke-width="3">
<path d="M458 177h10" />
<text x="470" y="177" fill="black" stroke-width="0" font-size="10" dy="3.66667">sys_clk</text>
<path d="M458 197h10" />
<text x="470" y="197" fill="black" stroke-width="0" font-size="10" dy="3.66667">sys_clk_gt</text>
<circle cx="465" cy="217" r="3" />
<path d="M458 217h4" />
<text x="470" y="217" fill="black" stroke-width="0" font-size="10" dy="3.66667">sys_rst_n</text>
</g>
<g stroke="black" stroke-width="5">
<path d="M718 137h-10" />
<text x="706" y="137" fill="black" stroke-width="0" font-size="10" text-anchor="end" dy="3.66667">cfg_ltssm_state[5:0]</text>
</g>
<g stroke="black" stroke-width="3">
<path d="M718 157h-10" />
<text x="706" y="157" fill="black" stroke-width="0" font-size="10" text-anchor="end" dy="3.66667">user_lnk_up</text>
<path d="M718 177h-10" />
<text x="706" y="177" fill="black" stroke-width="0" font-size="10" text-anchor="end" dy="3.66667">axi_aclk</text>
<circle cx="711" cy="197" r="3" />
<path d="M718 197h-4" />
<text x="706" y="197" fill="black" stroke-width="0" font-size="10" text-anchor="end" dy="3.66667">axi_aresetn</text>
<circle cx="711" cy="217" r="3" />
<path d="M718 217h-4" />
<text x="706" y="217" fill="black" stroke-width="0" font-size="10" text-anchor="end" dy="3.66667">axi_ctl_aresetn</text>
</g>
<g stroke="black" stroke-width="5">
<path d="M458 237h10" />
<text x="470" y="237" fill="black" stroke-width="0" font-size="10" dy="3.66667">usr_irq_req[0:0]</text>
<path d="M718 237h-10" />
<text x="706" y="237" fill="black" stroke-width="0" font-size="10" text-anchor="end" dy="3.66667">usr_irq_ack[0:0]</text>
</g>
<g stroke="black" stroke-width="3">
<path d="M718 257h-10" />
<text x="706" y="257" fill="black" stroke-width="0" font-size="10" text-anchor="end" dy="3.66667">msi_enable</text>
</g>
<g stroke="black" stroke-width="5">
<path d="M718 277h-10" />
<text x="706" y="277" fill="black" stroke-width="0" font-size="10" text-anchor="end" dy="3.66667">msi_vector_width[2:0]</text>
</g>
<g stroke="black" stroke-width="3">
<path d="M718 297h-10" />
<text x="706" y="297" fill="black" stroke-width="0" font-size="10" text-anchor="end" dy="3.66667">interrupt_out</text>
</g>
<g stroke="#41619f">
<path d="M475 69h226" />
<path d="M701,69 A6.83537,6.83537 1.61957 0,1 708,76" />
<path d="M708 76v242" />
<path d="M708,318 A6.83537,6.83537 1.61957 0,1 701,325" />
<path d="M701 325h-226" />
<path d="M475,325 A6.83537,6.83537 1.61957 0,1 468,318" />
<path d="M468 318v-242" />
<path d="M468,76 A6.83537,6.83537 1.61957 0,1 475,69" />
<path d="M805 149h206l3 1l2 1l1 2l1 3v82l-1 3l-1 2l-2 1l-3 1h-206l-3 -1l-2 -1l-1 -2l-1 -3v-82l1 -3l1 -2l2 -1z" stroke="none" fill="#edf6fe" />
<text x="908" y="147" fill="black" stroke-width="0" text-anchor="middle" dy="-1.6">axi_smc</text>
<text x="908" y="247" fill="#41619f" stroke-width="0" text-anchor="middle" dy="9.6">AXI SmartConnect</text>
<path d="M788 168h10v18h-10z" stroke="none" fill="#edf6fe" />
</g>
<g stroke="black" stroke-width="3">
<path d="M807 172v10" />
<path d="M802 177h10" />
</g>
<g stroke="black">
<path d="M800 170h14v14h-14z" />
<text x="815" y="177" fill="black" stroke-width="0" font-size="10" dy="3.66667">S00_AXI</text>
<path d="M1018 178h10v18h-10z" stroke="none" fill="#edf6fe" />
</g>
<g stroke="black" stroke-width="3">
<path d="M1008 182v10" />
<path d="M1003 187h10" />
</g>
<g stroke="black">
<path d="M1001 180h14v14h-14z" />
<text x="1001" y="187" fill="black" stroke-width="0" font-size="10" text-anchor="end" dy="3.66667">M00_AXI</text>
<path d="M1018 198h10v18h-10z" stroke="none" fill="#edf6fe" />
</g>
<g stroke="black" stroke-width="3">
<path d="M1008 202v10" />
<path d="M1003 207h10" />
</g>
<g stroke="black">
<path d="M1001 200h14v14h-14z" />
<text x="1001" y="207" fill="black" stroke-width="0" font-size="10" text-anchor="end" dy="3.66667">M01_AXI</text>
</g>
<g stroke="black" stroke-width="3">
<path d="M788 197h10" />
<text x="800" y="197" fill="black" stroke-width="0" font-size="10" dy="3.66667">aclk</text>
<circle cx="795" cy="217" r="3" />
<path d="M788 217h4" />
<text x="800" y="217" fill="black" stroke-width="0" font-size="10" dy="3.66667">aresetn</text>
</g>
<g stroke="#41619f">
<path d="M805 149h206" />
<path d="M1011,149 A6.83537,6.83537 1.61957 0,1 1018,156" />
<path d="M1018 156v82" />
<path d="M1018,238 A6.83537,6.83537 1.61957 0,1 1011,245" />
<path d="M1011 245h-206" />
<path d="M805,245 A6.83537,6.83537 1.61957 0,1 798,238" />
<path d="M798 238v-82" />
<path d="M798,156 A6.83537,6.83537 1.61957 0,1 805,149" />
<path d="M1185 29h86l3 1l2 1l1 2l1 3v42l-1 3l-1 2l-2 1l-3 1h-86l-3 -1l-2 -1l-1 -2l-1 -3v-42l1 -3l1 -2l2 -1z" stroke="none" fill="#edf6fe" />
<text x="1228" y="27" fill="black" stroke-width="0" text-anchor="middle" dy="-1.6">c_counter_binary_0</text>
<text x="1228" y="87" fill="#41619f" stroke-width="0" text-anchor="middle" dy="9.6">Binary Counter</text>
</g>
<g stroke="black" stroke-width="3">
<path d="M1168 57h10" />
<text x="1180" y="57" fill="black" stroke-width="0" font-size="10" dy="3.66667">CLK</text>
</g>
<g stroke="black" stroke-width="5">
<path d="M1288 57h-10" />
<text x="1276" y="57" fill="black" stroke-width="0" font-size="10" text-anchor="end" dy="3.66667">Q[25:0]</text>
</g>
<g stroke="#41619f">
<path d="M1185 29h86" />
<path d="M1271,29 A6.83537,6.83537 1.61957 0,1 1278,36" />
<path d="M1278 36v42" />
<path d="M1278,78 A6.83537,6.83537 1.61957 0,1 1271,85" />
<path d="M1271 85h-86" />
<path d="M1185,85 A6.83537,6.83537 1.61957 0,1 1178,78" />
<path d="M1178 78v-42" />
<path d="M1178,36 A6.83537,6.83537 1.61957 0,1 1185,29" />
<path d="M1125 159h206l3 1l2 1l1 2l1 3v82l-1 3l-1 2l-2 1l-3 1h-206l-3 -1l-2 -1l-1 -2l-1 -3v-82l1 -3l1 -2l2 -1z" stroke="none" fill="#edf6fe" />
<text x="1228" y="157" fill="black" stroke-width="0" text-anchor="middle" dy="-1.6">axi_bram_ctrl_0</text>
<text x="1228" y="257" fill="#41619f" stroke-width="0" text-anchor="middle" dy="9.6">AXI BRAM Controller</text>
<path d="M1108 178h10v18h-10z" stroke="none" fill="#edf6fe" />
</g>
<g stroke="black" stroke-width="3">
<path d="M1127 182v10" />
<path d="M1122 187h10" />
</g>
<g stroke="black">
<path d="M1120 180h14v14h-14z" />
<text x="1135" y="187" fill="black" stroke-width="0" font-size="10" dy="3.66667">S_AXI</text>
<path d="M1338 198h10v18h-10z" stroke="none" fill="#edf6fe" />
</g>
<g stroke="black" stroke-width="3">
<path d="M1328 202v10" />
<path d="M1323 207h10" />
</g>
<g stroke="black">
<path d="M1321 200h14v14h-14z" />
<text x="1321" y="207" fill="black" stroke-width="0" font-size="10" text-anchor="end" dy="3.66667">BRAM_PORTA</text>
</g>
<g stroke="black" stroke-width="3">
<path d="M1108 207h10" />
<text x="1120" y="207" fill="black" stroke-width="0" font-size="10" dy="3.66667">s_axi_aclk</text>
<circle cx="1115" cy="227" r="3" />
<path d="M1108 227h4" />
<text x="1120" y="227" fill="black" stroke-width="0" font-size="10" dy="3.66667">s_axi_aresetn</text>
</g>
<g stroke="#41619f">
<path d="M1125 159h206" />
<path d="M1331,159 A6.83537,6.83537 1.61957 0,1 1338,166" />
<path d="M1338 166v82" />
<path d="M1338,248 A6.83537,6.83537 1.61957 0,1 1331,255" />
<path d="M1331 255h-206" />
<path d="M1125,255 A6.83537,6.83537 1.61957 0,1 1118,248" />
<path d="M1118 248v-82" />
<path d="M1118,166 A6.83537,6.83537 1.61957 0,1 1125,159" />
<path d="M1105 389h246l3 1l2 1l1 2l1 3v162l-1 3l-1 2l-2 1l-3 1h-246l-3 -1l-2 -1l-1 -2l-1 -3v-162l1 -3l1 -2l2 -1z" stroke="none" fill="#edf6fe" />
<text x="1228" y="387" fill="black" stroke-width="0" text-anchor="middle" dy="-1.6">axi_bram_ctrl_1</text>
<text x="1228" y="567" fill="#41619f" stroke-width="0" text-anchor="middle" dy="9.6">AXI BRAM Controller</text>
<path d="M1088 448h10v18h-10z" stroke="none" fill="#edf6fe" />
</g>
<g stroke="black" stroke-width="3">
<path d="M1107 452v10" />
<path d="M1102 457h10" />
</g>
<g stroke="black">
<path d="M1100 450h14v14h-14z" />
<text x="1115" y="457" fill="black" stroke-width="0" font-size="10" dy="3.66667">S_AXI</text>
<path d="M1358 408h10v138h-10z" stroke="none" fill="#edf6fe" />
</g>
<g stroke="black" stroke-width="3">
<path d="M1348 412v10" />
<path d="M1343 417h10" />
</g>
<g stroke="black">
<path d="M1341 410h14v14h-14z" />
<text x="1341" y="417" fill="black" stroke-width="0" font-size="10" text-anchor="end" dy="3.66667">BRAM_PORTA</text>
</g>
<g stroke="black" stroke-width="3">
<path d="M1368 437h-10" />
<path d="M1337 432l8 5l-8 5z" stroke="none" fill="black" />
<text x="1336" y="437" fill="black" stroke-width="0" font-size="10" text-anchor="end" dy="3.66667">bram_addr_a[13:0]</text>
</g>
<g stroke="black" stroke-width="2">
<path d="M1368 457h-10" />
<path d="M1337 452l8 5l-8 5z" stroke="none" fill="black" />
<text x="1336" y="457" fill="black" stroke-width="0" font-size="10" text-anchor="end" dy="3.66667">bram_clk_a</text>
</g>
<g stroke="black" stroke-width="3">
<path d="M1368 477h-10" />
<path d="M1337 472l8 5l-8 5z" stroke="none" fill="black" />
<text x="1336" y="477" fill="black" stroke-width="0" font-size="10" text-anchor="end" dy="3.66667">bram_wrdata_a[31:0]</text>
<path d="M1368 497h-10" />
<path d="M1345 492l-8 5l8 5z" stroke="none" fill="black" />
<text x="1336" y="497" fill="black" stroke-width="0" font-size="10" text-anchor="end" dy="3.66667">bram_rddata_a[31:0]</text>
</g>
<g stroke="black" stroke-width="2">
<path d="M1368 517h-10" />
<path d="M1337 512l8 5l-8 5z" stroke="none" fill="black" />
<text x="1336" y="517" fill="black" stroke-width="0" font-size="10" text-anchor="end" dy="3.66667">bram_en_a</text>
</g>
<g stroke="black" stroke-width="3">
<path d="M1368 537h-10" />
<path d="M1337 532l8 5l-8 5z" stroke="none" fill="black" />
<text x="1336" y="537" fill="black" stroke-width="0" font-size="10" text-anchor="end" dy="3.66667">bram_we_a[3:0]</text>
<path d="M1088 477h10" />
<text x="1100" y="477" fill="black" stroke-width="0" font-size="10" dy="3.66667">s_axi_aclk</text>
<circle cx="1095" cy="497" r="3" />
<path d="M1088 497h4" />
<text x="1100" y="497" fill="black" stroke-width="0" font-size="10" dy="3.66667">s_axi_aresetn</text>
</g>
<g stroke="#41619f">
<path d="M1105 389h246" />
<path d="M1351,389 A6.83537,6.83537 1.61957 0,1 1358,396" />
<path d="M1358 396v162" />
<path d="M1358,558 A6.83537,6.83537 1.61957 0,1 1351,565" />
<path d="M1351 565h-246" />
<path d="M1105,565 A6.83537,6.83537 1.61957 0,1 1098,558" />
<path d="M1098 558v-162" />
<path d="M1098,396 A6.83537,6.83537 1.61957 0,1 1105,389" />
<path d="M1475 29h126l3 1l2 1l1 2l1 3v42l-1 3l-1 2l-2 1l-3 1h-126l-3 -1l-2 -1l-1 -2l-1 -3v-42l1 -3l1 -2l2 -1z" stroke="none" fill="#edf6fe" />
<text x="1538" y="27" fill="black" stroke-width="0" text-anchor="middle" dy="-1.6">ilslice_0</text>
<text x="1538" y="87" fill="#41619f" stroke-width="0" text-anchor="middle" dy="9.6">Inline Slice</text>
</g>
<g stroke="black" stroke-width="5">
<path d="M1458 57h10" />
<text x="1470" y="57" fill="black" stroke-width="0" font-size="10" dy="3.66667">Din[25:0]</text>
<path d="M1618 57h-10" />
<text x="1606" y="57" fill="black" stroke-width="0" font-size="10" text-anchor="end" dy="3.66667">Dout[0:0]</text>
</g>
<g stroke="#41619f">
<path d="M1475 29h126" />
<path d="M1601,29 A6.83537,6.83537 1.61957 0,1 1608,36" />
<path d="M1608 36v42" />
<path d="M1608,78 A6.83537,6.83537 1.61957 0,1 1601,85" />
<path d="M1601 85h-126" />
<path d="M1475,85 A6.83537,6.83537 1.61957 0,1 1468,78" />
<path d="M1468 78v-42" />
<path d="M1468,36 A6.83537,6.83537 1.61957 0,1 1475,29" />
<path d="M1445 179h186l3 1l2 1l1 2l1 3v42l-1 3l-1 2l-2 1l-3 1h-186l-3 -1l-2 -1l-1 -2l-1 -3v-42l1 -3l1 -2l2 -1z" stroke="none" fill="#edf6fe" />
<text x="1538" y="177" fill="black" stroke-width="0" text-anchor="middle" dy="-1.6">blk_mem_gen_0</text>
<text x="1538" y="237" fill="#41619f" stroke-width="0" text-anchor="middle" dy="9.6">Block Memory Generator</text>
<path d="M1428 198h10v18h-10z" stroke="none" fill="#edf6fe" />
</g>
<g stroke="black" stroke-width="3">
<path d="M1447 202v10" />
<path d="M1442 207h10" />
</g>
<g stroke="black">
<path d="M1440 200h14v14h-14z" />
<text x="1455" y="207" fill="black" stroke-width="0" font-size="10" dy="3.66667">BRAM_PORTA</text>
</g>
<g stroke="black" stroke-width="3">
<path d="M1648 207h-10" />
<text x="1636" y="207" fill="black" stroke-width="0" font-size="10" text-anchor="end" dy="3.66667">rsta_busy</text>
</g>
<g stroke="#41619f">
<path d="M1445 179h186" />
<path d="M1631,179 A6.83537,6.83537 1.61957 0,1 1638,186" />
<path d="M1638 186v42" />
<path d="M1638,228 A6.83537,6.83537 1.61957 0,1 1631,235" />
<path d="M1631 235h-186" />
<path d="M1445,235 A6.83537,6.83537 1.61957 0,1 1438,228" />
<path d="M1438 228v-42" />
<path d="M1438,186 A6.83537,6.83537 1.61957 0,1 1445,179" />
<path d="M1425 278h226l3 1l2 1l1 2l1 3v44l-1 3l-1 2l-2 1l-3 1h-226l-3 -1l-2 -1l-1 -2l-1 -3v-44l1 -3l1 -2l2 -1z" stroke="none" fill="#edf6fe" />
<text x="1538" y="276" fill="black" stroke-width="0" text-anchor="middle" dy="-1.6">ilvector_logic_0</text>
<text x="1538" y="338" fill="#41619f" stroke-width="0" text-anchor="middle" dy="9.6">Inline Utility Vector Logic</text>
</g>
<g stroke="black" stroke-width="5">
<path d="M1408 307h10" />
<text x="1420" y="307" fill="black" stroke-width="0" font-size="10" dy="3.66667">Op1[0:0]</text>
<path d="M1668 307h-10" />
<text x="1656" y="307" fill="black" stroke-width="0" font-size="10" text-anchor="end" dy="3.66667">Res[0:0]</text>
</g>
<g stroke="#41619f">
<path d="M1425 278h226" />
<path d="M1651,278 A6.83537,6.83537 1.61957 0,1 1658,285" />
<path d="M1658 285v44" />
<path d="M1658,329 A6.83537,6.83537 1.61957 0,1 1651,336" />
<path d="M1651 336h-226" />
<path d="M1425,336 A6.83537,6.83537 1.61957 0,1 1418,329" />
<path d="M1418 329v-44" />
<path d="M1418,285 A6.83537,6.83537 1.61957 0,1 1425,278" />
<path d="M1475 379h126l3 1l2 1l1 2l1 3v162l-1 3l-1 2l-2 1l-3 1h-126l-3 -1l-2 -1l-1 -2l-1 -3v-162l1 -3l1 -2l2 -1z" stroke="none" fill="#edf6fe" />
<text x="1538" y="377" fill="black" stroke-width="0" text-anchor="middle" dy="-1.6">blk_mem_gen_1</text>
<text x="1538" y="557" fill="#41619f" stroke-width="0" text-anchor="middle" dy="9.6">Block Memory Generator</text>
<path d="M1458 398h10v138h-10z" stroke="none" fill="#edf6fe" />
</g>
<g stroke="black" stroke-width="3">
<path d="M1472 407h10" />
</g>
<g stroke="black">
<path d="M1470 400h14v14h-14z" />
<text x="1485" y="407" fill="black" stroke-width="0" font-size="10" dy="3.66667">BRAM_PORTA</text>
</g>
<g stroke="black" stroke-width="3">
<path d="M1458 427h10" />
<path d="M1481 422l8 5l-8 5z" stroke="none" fill="black" />
<text x="1490" y="427" fill="black" stroke-width="0" font-size="10" dy="3.66667">addra[13:0]</text>
</g>
<g stroke="black" stroke-width="2">
<path d="M1458 447h10" />
<path d="M1481 442l8 5l-8 5z" stroke="none" fill="black" />
<text x="1490" y="447" fill="black" stroke-width="0" font-size="10" dy="3.66667">clka</text>
</g>
<g stroke="black" stroke-width="3">
<path d="M1458 467h10" />
<path d="M1481 462l8 5l-8 5z" stroke="none" fill="black" />
<text x="1490" y="467" fill="black" stroke-width="0" font-size="10" dy="3.66667">dina[31:0]</text>
<path d="M1458 487h10" />
<path d="M1489 482l-8 5l8 5z" stroke="none" fill="black" />
<text x="1490" y="487" fill="black" stroke-width="0" font-size="10" dy="3.66667">douta[31:0]</text>
</g>
<g stroke="black" stroke-width="2">
<path d="M1458 507h10" />
<path d="M1481 502l8 5l-8 5z" stroke="none" fill="black" />
<text x="1490" y="507" fill="black" stroke-width="0" font-size="10" dy="3.66667">ena</text>
</g>
<g stroke="black" stroke-width="3">
<path d="M1458 527h10" />
<path d="M1481 522l8 5l-8 5z" stroke="none" fill="black" />
<text x="1490" y="527" fill="black" stroke-width="0" font-size="10" dy="3.66667">wea[0:0]</text>
</g>
<g stroke="#41619f">
<path d="M1475 379h126" />
<path d="M1601,379 A6.83537,6.83537 1.61957 0,1 1608,386" />
<path d="M1608 386v162" />
<path d="M1608,548 A6.83537,6.83537 1.61957 0,1 1601,555" />
<path d="M1601 555h-126" />
<path d="M1475,555 A6.83537,6.83537 1.61957 0,1 1468,548" />
<path d="M1468 548v-162" />
<path d="M1468,386 A6.83537,6.83537 1.61957 0,1 1475,379" />
<path d="M1708 57v-7h14l7 7l-7 7h-14z" stroke="none" fill="#ddd4d0" />
</g>
<g stroke-width="3">
<path d="M1708 57v-7h14l7 7l-7 7h-14z" />
<text x="1733" y="57" fill="black" stroke-width="0" dy="4.4">axi_clk_led[0:0]</text>
<path d="M1708 117v-7h14l7 7l-7 7h-14z" stroke="none" fill="#ddd4d0" />
</g>
<g stroke="#2a5e6f" stroke-width="3">
<path d="M1708 117v-7h14l7 7l-7 7h-14z" />
<text x="1733" y="117" fill="black" stroke-width="0" dy="4.4">pcie_7x_mgt_rtl_0</text>
<path d="M1708 307v-7h14l7 7l-7 7h-14z" stroke="none" fill="#ddd4d0" />
</g>
<g stroke-width="3">
<path d="M1708 307v-7h14l7 7l-7 7h-14z" />
<text x="1733" y="307" fill="black" stroke-width="0" dy="4.4">user_lnk_up[0:0]</text>
</g>
<g stroke="#41619f" stroke-width="4">
<path d="M1348 207h80" />
</g>
<g stroke-width="3">
<path d="M1368 437h20v-10h70" />
</g>
<g>
<path d="M1368 457h20v-10h70" />
<path d="M1368 517h20v-10h70" />
</g>
<g stroke-width="3">
<path d="M1368 537h20v-10h70" />
<path d="M1368 477h20v-10h70" />
</g>
<g stroke="#41619f" stroke-width="4">
<path d="M1028 187h80" />
<path d="M1028 207h20v250h40" />
</g>
<g stroke-width="3">
<path d="M1368 497h20v-10h70" />
<path d="M1288 57h170" />
</g>
<g stroke="#41619f" stroke-width="4">
<path d="M108 147h40" />
</g>
<g stroke-width="3">
<path d="M1618 57h90" />
<path d="M1668 307h40" />
</g>
<g>
<path d="M108 217h350" />
</g>
<g stroke-width="3">
<path d="M408 157h20v20h30" />
<path d="M408 137h30v60h20" />
</g>
<g stroke="#41619f" stroke-width="4">
<path d="M718 97h50v80h20" />
</g>
<g>
<path d="M718 177h30v100h310" />
<path d="M1056 205h5v5h-5z" stroke="none" fill="#102235" />
<path d="M1056 275h5v5h-5z" stroke="none" fill="#102235" />
<path d="M748 197h40" />
<path d="M746 195h5v5h-5z" stroke="none" fill="#102235" />
<path d="M1168 57h-110v420h30" />
<path d="M1058 207h50" />
<path d="M718 197h20v120h330" />
<path d="M1066 315h5v5h-5z" stroke="none" fill="#102235" />
<path d="M738 217h50" />
<path d="M736 215h5v5h-5z" stroke="none" fill="#102235" />
<path d="M1108 227h-40v270h20" />
</g>
<g stroke="#41619f" stroke-width="4">
<path d="M718 117h990" />
</g>
<g>
<path d="M718 157h40v150h650" />
</g>
</g>
</svg>
